<?xml version="1.0" encoding="utf-8"?>
<!-- Generator: Adobe Illustrator 26.0.3, SVG Export Plug-In . SVG Version: 6.00 Build 0)  -->
<svg version="1.0" id="katman_1" xmlns="http://www.w3.org/2000/svg" xmlns:xlink="http://www.w3.org/1999/xlink" x="0px" y="0px"
	 viewBox="0 0 600 450" style="enable-background:new 0 0 600 450;" xml:space="preserve">
<style type="text/css">
	.st0{fill:#0056D2;}
</style>
<g>
	<path class="st0" d="M123.6,225.2c0-18.7,15.4-33.8,34.7-33.8c19.4,0,34.8,15.1,34.8,33.8c0,18.6-15.4,34-34.8,34
		C138.9,259.2,123.6,243.7,123.6,225.2L123.6,225.2z M176.4,225.2c0-9.3-8.1-17.6-18.2-17.6c-9.9,0-18,8.3-18,17.6
		c0,9.5,8.1,17.7,18,17.7C168.3,242.9,176.4,234.7,176.4,225.2L176.4,225.2z M473,225.7c0-20.5,16.6-34.4,31.8-34.4
		c10.3,0,16.2,3.2,20.2,9.2l1.6-8H542v65.3h-15.5l-2-6.7c-4.5,5-10.2,8-19.8,8C489.9,259.2,473,246.1,473,225.7L473,225.7z
		 M525.8,225.6c0-9.9-8.2-18-18.1-18c-9.9,0-18.1,8.2-18.1,18.1v0.1c0,9.1,8.1,17.2,18,17.2C517.7,242.9,525.8,234.8,525.8,225.6
		L525.8,225.6z M454,200.2v-7.6h-16.9v65.3H454v-35.2c0-10.6,5.2-16.1,14.3-16.1c0.6,0,1.2,0,1.7,0.1l3.1-15.8
		C464.3,191,457.9,194,454,200.2L454,200.2z M284,200.2v-7.6l-16.9,0l0.1,65.3l16.9,0l-0.1-35.2c0-10.6,5.2-16.1,14.3-16.1
		c0.6,0,1.2,0,1.7,0.1l3.1-15.8C294.4,191,288,194,284,200.2L284,200.2z M198.9,232.6v-40h16.9v38c0,8.4,4.7,13.3,12.8,13.3
		c9.1,0,14.3-5.5,14.3-16.1v-35.2h16.9v65.3h-16.9v-7.6c-4,6.2-10.5,9.2-19.4,9.2C208.3,259.6,198.9,248.6,198.9,232.6L198.9,232.6z
		 M363.5,225.3c0-18.3,13.1-33.9,33.9-33.9c19.3,0,32.8,15.5,32.8,33.6c0,1.8-0.1,3.6-0.4,5.4l-49.8-0.1c1.9,7.8,8.4,13.5,18.1,13.5
		c5.9,0,12.2-2.2,16.1-7.1l11.5,9.2c-5.9,8.4-16.4,13.3-27.5,13.3C378.6,259.1,363.5,244.4,363.5,225.3L363.5,225.3z M413.2,218.5
		c-1-6.6-7.8-11.7-15.9-11.7c-7.8,0-14.2,4.7-16.7,11.7L413.2,218.5z M303.3,243.7l15-7.9c2.5,5.4,7.5,8.6,14.5,8.6c6.5,0,9-2.1,9-5
		c0-10.5-35.6-4.1-35.6-28.2c0-13.3,11.6-20.3,25.9-20.3c10.9,0,20.6,4.8,25.8,13.8l-14.9,7.9c-2.2-4.4-6.3-6.9-11.6-6.9
		c-5.1,0-7.6,1.8-7.6,4.8c0,10.2,35.6,3.7,35.6,28.2c0,12.7-10.3,20.4-27.1,20.4C318.2,259.1,308.3,254.4,303.3,243.7L303.3,243.7z
		 M56.4,225.2c0-18.8,15.4-34,34.7-34c11.7-0.1,22.8,5.8,29.3,15.6l-14.4,8.4c-3.4-4.8-8.9-7.7-14.9-7.7c-9.9,0-18,8.3-18,17.7
		c0,9.5,8.1,17.7,18,17.7c6.2,0,12-3.1,15.3-8.4l14.3,8.5c-6.4,10.1-17.6,16.2-29.6,16.1C71.8,259.2,56.4,243.7,56.4,225.2
		L56.4,225.2z M56.4,225.2"/>
</g>
</svg>
