<?xml version="1.0" encoding="UTF-8"?>
<svg id="katman_1" xmlns="http://www.w3.org/2000/svg" version="1.1" viewBox="0 0 175 122.4">
  <!-- Generator: Adobe Illustrator 29.4.0, SVG Export Plug-In . SVG Version: 2.1.0 Build 152)  -->
  <defs>
    <style>
      .st0 {
        fill: #2869dd;
      }

      .st1 {
        fill: #161616;
      }
    </style>
  </defs>
  <path class="st1" d="M54.7,67.9c0-.6-.6-1-1.2-1s-.6.1-.8.4c-1.1,1.6-2.2,2.4-4.3,2.4s-5.1-2.4-5.1-6.1,1.7-5.1,4-5.1,3.6,1.9,4.7,4.3c.3.7.9.9,1.5.9s1.3-.5,1.2-1.1c0-.9-.1-2.2-.2-3.2,0-1-.2-2-.2-3,0-.7-.6-1.1-1.3-1.1s-1.1.2-1.2.9c0,.4-.3.6-.6.6s-.5-.2-1-.5c-.6-.3-1.7-.7-3.2-.7-4.6,0-8.5,3.1-8.5,8.9s3.3,8.7,8.9,8.7,6.5-2.4,7.3-4.9c0-.1,0-.3,0-.4Z"/>
  <path class="st1" d="M74.4,70.2h-.6c-.3,0-.5-.2-.5-.7v-8.2c0-3.3-1.8-5.8-5.3-5.8s-3.9.9-5,2.1c-.2.3-.5.6-.6.6s-.2-.1-.2-.3v-7.8c0-.8-.5-1.3-1.3-1.3s-.8,0-1.5.2c-1.2.3-2.3.5-3.5.8-.9.2-1.3.6-1.3,1.3s.4,1.1,1.1,1.1h1c.6,0,.8.2.8.8v16.4c0,.5-.3.7-.7.7h-.9c-.7,0-1.2.5-1.2,1.3s.4,1.4,1.2,1.4h7.3c.8,0,1.3-.6,1.3-1.4s-.4-1.3-1.2-1.3h-.5c-.3,0-.6-.2-.6-.7v-5.5c0-1.7.2-3,.9-3.8.6-.7,1.2-1.2,2.3-1.2s1.8.4,2.3,1.1c.7.9.8,2.5.8,4.9v4.6c0,.5-.2.7-.6.7h-.6c-.8,0-1.2.6-1.2,1.3s.5,1.4,1.2,1.4h7c.8,0,1.3-.6,1.3-1.4s-.5-1.3-1.2-1.3h0Z"/>
  <path class="st1" d="M84.5,55.6c-4.6,0-9.3,3.2-9.3,8.8s3.5,8.8,8.7,8.8,9.2-3.1,9.2-8.7-3.5-8.9-8.7-8.9h0ZM84.7,69.8c-2.7,0-4.7-2.8-4.7-6.5s1.5-4.6,3.7-4.6,4.7,2.9,4.7,6.6-1.6,4.4-3.7,4.4h0Z"/>
  <path class="st1" d="M103.3,55.6c-4.6,0-9.3,3.2-9.3,8.8s3.5,8.8,8.7,8.8,9.2-3.1,9.2-8.7-3.5-8.9-8.7-8.9h0ZM103.5,69.8c-2.7,0-4.7-2.8-4.7-6.5s1.5-4.6,3.7-4.6,4.7,2.9,4.7,6.6-1.6,4.4-3.7,4.4h0Z"/>
  <path class="st1" d="M120.4,70.2h-.9c-.5,0-.6-.2-.6-.7v-19.5c0-.8-.4-1.3-1.2-1.3s-.8,0-1.5.2c-1.3.3-2.5.5-3.8.8-.9.2-1.3.6-1.3,1.3s.4,1.1,1.1,1.1h1c.6,0,.8.2.8.8v16.4c0,.5-.2.7-.6.7h-.9c-.7,0-1.2.5-1.2,1.3s.4,1.4,1.3,1.4h7.7c.8,0,1.3-.6,1.3-1.4s-.5-1.3-1.2-1.3h0Z"/>
  <path class="st1" d="M141.1,70.2h-.4c-.5,0-.7-.5-.7-2.3v-5.9c0-3.8-2.1-6.4-7.2-6.4s-7.8,2.1-7.8,4.9.9,2,2.1,2,2.4-.5,2.9-1.7c.4-1,.8-2.4,2.4-2.4s2.9,1.2,2.9,2.8h0c0,1.2-.5,1.6-1.5,1.8-.7.2-1.3.2-2.3.4-4.2.5-6.7,1.9-6.7,5.3s1.7,4.5,5.2,4.5,3.9-.8,5.1-2.2c.2-.2.3-.3.4-.3s.2,0,.3.3c.2.5.4.8.7,1.1.6.6,1.4.9,2.6.9s2.8-.6,2.8-2-.3-.9-.8-.9h0ZM135.4,66.2c0,.5,0,.9-.1,1.3-.4,1.7-1.6,2.7-3.3,2.7s-2.5-.8-2.5-2.1.9-2.1,2.9-2.5c1-.2,1.7-.3,2-.3h0c.7,0,.9.2.9.8h0c0,0,0,0,0,0Z"/>
  <path class="st1" d="M151.3,70.2h-.9c-.5,0-.7-.2-.7-.7v-12.7c0-.8-.4-1.3-1.1-1.3s-.8,0-1.5.2c-.8.2-2.1.6-3.8,1.2-.8.3-1.3.7-1.3,1.4s.5,1.2,1.2,1.2h.9c.6,0,.8.3.8.9v9c0,.5-.2.7-.7.7h-.9c-.7,0-1.2.5-1.2,1.3s.4,1.4,1.2,1.4h7.8c.8,0,1.2-.6,1.2-1.4s-.5-1.3-1.2-1.3h0Z"/>
  <path class="st0" d="M34.1,61.8c1.7,0,3.1-1.4,3.1-3.1s-1.4-3.1-3.1-3.1-3.1,1.4-3.1,3.1,1.4,3.1,3.1,3.1Z"/>
  <path class="st1" d="M32.1,62.7l-1.5-.4c-2.4-.7-3-1.3-3-2.3s.6-1.7,1.9-1.7h0c.8,0,1.4-.6,1.4-1.4s-.6-1.3-1.4-1.4c-4.6-.2-6.8,1.7-6.8,5.1s1.6,4.1,4.9,5l1.5.4c2.5.7,3.2,1.3,3.2,2.5s-.7,1.8-2.1,1.8-2.4-.5-3.3-1.3c-.6-.5-1.1-1.2-1.5-2-.4-.7-.8-1.1-1.5-1.1s-1.5.6-1.4,1.7c0,.8.2,1.4.3,2.1,0,.8.2,1.4.3,2.4.1.8.6,1.3,1.3,1.3s1.1-.3,1.3-.8c.1-.5.3-.6.7-.6s.5,0,.9.2c.8.3,1.9.7,3.8.7,3.8,0,6.2-2.2,6.2-5.2s-1.6-4.3-5.1-5.2h0Z"/>
  <path class="st0" d="M147.3,55c1.7,0,3.1-1.4,3.1-3.1s-1.4-3.1-3.1-3.1-3.1,1.4-3.1,3.1,1.4,3.1,3.1,3.1Z"/>
</svg>