<?xml version="1.0" encoding="utf-8"?>
<!-- Generator: Adobe Illustrator 29.4.0, SVG Export Plug-In . SVG Version: 9.03 Build 0)  -->
<svg version="1.0" id="katman_1" xmlns="http://www.w3.org/2000/svg" xmlns:xlink="http://www.w3.org/1999/xlink" x="0px" y="0px"
	 viewBox="0 0 841.9 595.3" style="enable-background:new 0 0 841.9 595.3;" xml:space="preserve">
<style type="text/css">
	.st0{fill-rule:evenodd;clip-rule:evenodd;fill:#FFB243;}
	.st1{fill:#1E1E1E;}
</style>
<path class="st0" d="M413.2,181.2c3.5,1.3,4.8,3.3,6.5,6.5l36.9,89.9c6.1-1,14.2-9,20.2-4.3c3.9,3,3.8,9.1-0.2,12
	c-3.4,2.5-13.1,5.1-17.6,7.3c-3.8,1.8-8.9,4.2-12.3,6.8c-2.9,2.2-4.7,6-9,6c-3.3,0-6.8-2.8-7.2-6.1c-1-8.5,7.4-10.6,12.6-15.1
	l-7.2-17.6l-33.5,5.8c-1.1,0.8-1.6,9-2,11c6.1,0,9.3,6.4,6,11.5c-3.3,5.1-7.9,3.1-12.7,2.9c-5.8-0.2-13.4,0.1-18.9-0.7
	c-5.5-0.8-9.1-6.2-6-11.5c3.2-5.4,11.3-3,16.5-2.8l16.8-84.6c0-0.5-2-0.3-2.6-0.3c-5.5,0.3-15.9,3.4-20.6,2.8
	c-7.7-1-8.6-12.5-1.2-14.8c7.8-2.4,19.3-1.8,27.5-3.7l4.4-1.1L413.2,181.2L413.2,181.2z M430,256.3l-16.2-39.8l-8.7,43.9L430,256.3
	L430,256.3z"/>
<path class="st1" d="M94.6,327.3H94v-15.6h0.6C94.5,316.9,94.4,322.1,94.6,327.3z"/>
<path class="st0" d="M729,202l0.6,120.7c5.9-1,16.8-3.2,18.4,5.1c2.1,11-14.2,9.2-20.9,10c-4.2,0.6-8.5,1-12.6,1.8
	c-5.8,1.1-11,3.3-16.8,4.3c-3.8-1-6-4.2-5.6-8.2c0.9-7.8,16.1-10.4,22.5-10.7v-56.6l-43.3,7.8v37.3h14.1c0.3,0,3,1.8,3.5,2.3
	c4.3,4.5,1.5,12-4.6,12.8c-7.8,0.9-16.5-0.3-24.2-0.6c-6-0.2-16.3,2.3-18-5.7c-0.7-3.5,2.4-9.3,5.8-9.3h8.4v-98.2h-14.1
	c-2.1,0-5.2-4-5.5-6.1c-0.8-5.7,3.9-8.6,8.9-8.9c9.7-0.7,27.5-0.9,37,0c5.9,0.6,10.1,5.8,6.9,11.5c-0.4,0.7-3.4,3.5-4,3.5h-14.1
	v45.6l43.3-7l-0.6-50.8h-13.6c-2.2,0-5.5-3.4-5.9-5.6c-2.4-11.9,12.4-9.1,19.2-9.4c8.8-0.3,18.8-1.7,27.7-0.6c6,0.7,8.3,9,3.8,13
	c-0.6,0.5-3.3,2-3.8,2L729,202L729,202z"/>
<path class="st0" d="M291.4,219.3c-6-0.3-16.5,4.5-19.5-3.3c-2.1-5.4,1.4-9.4,6.6-10.5c17.9-3.8,56.5-4.5,72.4,4.8
	c15.9,9.3,11.1,28.4,0,39.9c-1.1,1.1-5.9,4.3-5.7,5.2c4.8,6,6.9,14.8,8.4,22.3c2.5,12.8,1.9,25.6,3.8,38.3
	c0.9,5.8,1.3,14.9,8.9,14.9c7.7,0,6.8-9.2,10.2-13c4.9-5.3,13.7-1.2,13.2,5.6c-0.1,1.6-2.3,7.3-3.2,9c-4.1,8.5-12.8,14.2-22.4,13.2
	c-25.1-2.5-21.6-35.9-23.5-53.9c-0.6-5.7-3-23-6.6-26.9c-5.7-6.1-20.1,2.2-27.5,1.8v42.2c5.8,0,17.6-4.5,19,4.4
	c0.9,5.7-1.5,8.2-6.8,9.3c-11.4,2.5-24.2,2.7-35.7,5.3c-5.8-0.3-9.8-6.1-6.8-11.4c2.8-5,10.5-3.7,15.3-5.2v-42.7
	c-14.7,2-14.6-16.8,0-15L291.4,219.3L291.4,219.3z M306.4,249.9c4.9-0.3,9.7-1.8,14.4-3.2c3.9-1.1,12.7-3.5,15.8-5.6
	c4-2.7,11.4-12.3,9.3-17.2c-3.1-7.3-32.5-7.4-39.5-6.9V249.9L306.4,249.9z"/>
<path class="st0" d="M94.6,311.7c0.1-7.9-0.4-21.2,0.7-28.4c0.8-5,4.7-7.8,9.8-6.7c6.4,1.4,4.8,9.9,5.8,15
	c3.4,17.8,25.7,27.5,40.2,15.7c9.9-8,9.8-20.7-1.7-27c-17-9.3-39.2-1.6-46.3-25.3c-3-10-1.6-25.6,0.9-35.8c6.4-25.8,30.1-25,46-8
	v-13.6c0-0.9,1.7-3.6,2.6-4.3c4.3-3.7,10.7-1.4,12.3,3.9c0,13.4-0.9,26.9-1.6,40.3c-0.3,5.7,1.5,14.3-6.9,15.1
	c-9.1,0.8-8-10.2-9.4-16c-1.9-7.6-6.4-14.4-12.6-19.2c-12.9-9.8-15.7,2.3-17.2,12.7c-1.1,7.7-3.1,22.7,5.1,27.1
	c5.5,3,18.4,3.8,25.6,6.2c45.2,15.1,24.3,68.5-17,63.8c-7.9-0.9-14.7-4.9-21.8-7.9c0.9,6.4,3.2,23.2-8.1,21.1
	c-6.9-1.3-6.2-7.8-6.3-13.1C94.4,322.1,94.5,316.9,94.6,311.7L94.6,311.7z"/>
<path class="st0" d="M505,221l-25.4,0.6c-0.8,0.8,3.3,20.2,3.5,23.4c0.5,9.9-12,11.8-14.6,2.5c-1.9-6.7-4.5-23.8-5-30.8
	c-0.6-9.3,4.5-9.7,12.4-10.1c19.7-1.1,40.3-0.4,60.1-1.1c4.3-0.2,12.1-1.6,16-1c1.9,0.3,4.2,1.7,5.4,3.3c2.7,3.8,0.9,6.8,0.8,10.7
	c0,3.6,1,9.8,0.6,12.7c-1.3,8.7-13.7,8.9-14.9,0c-0.2-1.5-0.2-10.8-0.6-11.2L520,221v95.9h15.9c0.8,0,3.3,1.6,4.1,2.3
	c3.2,3,3.3,7.6,0.2,10.6c-3.5,3.4-13.2,1.9-18.1,2.1c-10.6,0.4-22.2,1.6-32.9,0.6c-6.1-0.6-9-8.7-4.6-12.7c0.5-0.5,4.2-2.3,4.6-2.3
	H505L505,221L505,221z"/>
<path class="st0" d="M241.8,244.7v-14.2c0-1.1,2.2-3.7,3.2-4.3c5.3-3.8,11.3,0,11.9,6c0.7,7.8,0.7,24,0,31.8
	c-0.6,6.4-7.5,10.2-12.7,5.7c-3-2.6-6.1-8.4-10.1-11.8c-6.3-5.3-20.9-11.8-27.1-4c-7,8.8-6.8,38.5-6.1,49.9c0.7,11.3,5,21,17.6,22.2
	c16.3,1.6,27.8-2,29.7-20c0.6-5.6-2.2-15.6,4.8-17.7c6.1-1.9,9.6,2.4,10.2,8.1c2.2,20.2-8.6,43-30.8,44.7
	c-42.8,3.2-47.8-22-46.5-58.1c1.1-31.1,9.7-58.8,47.3-43.3L241.8,244.7L241.8,244.7z"/>
<path class="st0" d="M611.2,241.3v-14.7c0-1.6,3.5-4.8,5.2-5.2c5.6-1.5,9.4,2,9.9,7.5c0.7,7.9,0.7,23.3,0,31.2
	c-0.7,7.5-7.9,10.6-13.3,5.2c-5.8-5.8-7.2-11.1-15.9-15.3c-10-4.8-19.1-6.3-23.6,5.7c-3.6,9.7-4.8,42.6-2.2,52.4
	c3.5,13.2,15.5,15.5,27.6,14.6c12.4-1,17.8-10.1,18.7-21.8c0.4-5.2-1.9-12.7,4.8-14.8c8-2.5,10.3,5.1,10.3,11.5
	c0,21.5-11.1,38.8-33.8,40.2c-26.7,1.6-42.3-10.8-43.6-37.8c-0.7-13.6-0.5-35.5,3.8-48.2C567.8,225.7,592.1,228,611.2,241.3z"/>
<path class="st1" d="M351.5,398.3v-45.3c0-0.2,2-2,2.5-2.2c2.9-1.3,5.4,1,5.6,3.9c-1.5,17.1,1.9,37.6,0,54.3
	c-0.6,5.2-6.6,5.9-9.2,1.7l-34.1-46.5v46.5c0,2.5-7.4,4.9-8.1-1.1c-2-16.7,1.5-37.2,0-54.3c0.5-4.5,5.2-6.4,8.7-3.5L351.5,398.3
	L351.5,398.3z"/>
<path class="st1" d="M695,410.7c-0.7,3.3-7.5,4.2-8.1-1.1c-2-16.7,1.5-37.2,0-54.3c0.8-4.7,5.2-6.5,8.9-3.1l34.4,46.7v-45.9
	c0-0.2,2-2,2.5-2.2c2.9-1.3,5.4,1,5.6,3.9c-1.4,17,1.9,37.1,0,53.7c-0.7,5.8-6,6.7-9.2,2.3L695,364.2V410.7L695,410.7z"/>
<path class="st1" d="M390,351c3.2-0.7,15.1-0.4,19-0.1c39.5,2.7,38.5,58.6,2.3,61.8c-5,0.4-15.9,0.6-20.8,0c-3.4-0.4-4.6-2.9-4.9-6
	c-1.5-15.9,1.2-34.2,0-50.3C385.5,354.3,388,351.5,390,351L390,351z M393.6,405.8h17c11.3,0,20.1-13.5,20-24
	c-0.1-11.3-9.1-24-21.1-24h-15.9V405.8z"/>
<path class="st1" d="M180.5,349.9c43.6-2.9,44.4,68.2-1.9,63.9C143.3,410.6,142.4,352.5,180.5,349.9z M177.5,357.4
	c-24.9,3.9-23.8,52.6,7.9,49.5C213.6,404.1,212.3,352,177.5,357.4z"/>
<path class="st1" d="M634.8,349.9c43.7-2.2,43.4,67.9-1.9,63.9C596.9,410.6,596.5,351.8,634.8,349.9z M631.9,357.4
	c-22.3,3-24.7,42.6-1.6,48.7C666.3,415.5,670.6,352.2,631.9,357.4z"/>
<path class="st1" d="M506,412.5c-6.3,5.1-9.3-9.2-10.7-12.8l-30.9-0.4c-2.1,2.9-3.7,13-7.2,13.8c-4.3,0.9-6.3-2.3-5.1-6.2
	c8.1-15.7,12.5-36.8,20.8-52c3.3-6,9.6-6.3,12.9-0.2c8.3,15.4,13,36.4,21,52.3C507.7,408.6,507.4,411.4,506,412.5L506,412.5z
	 M466.9,391.9h25.4l-12.4-31.8L466.9,391.9z"/>
<path class="st1" d="M236.4,350.4c2.4-0.5,4.3,0.6,4.7,3.1c2.5,15.9-8.4,52,15.9,53.4c28.5,1.7,16-36.2,18.9-53.3
	c1.4-3.9,5.2-4.3,7.7-1c-0.2,12.4,1.2,26.1,0.3,38.4c-1.3,17.4-13.6,24.5-30.2,22.6c-29.5-3.4-17.7-40.3-20.1-60.2
	C233.5,351.9,235,350.7,236.4,350.4L236.4,350.4z"/>
<path class="st1" d="M104.9,357.8v19.6h29.2c2.7,0,4.3,4.3,2.4,6.2c-0.1,0.1-2.3,1.3-2.4,1.3h-29.2v24.5c0,4-7.2,5.8-8,0.5
	c1.1-17.3-1.6-36.7-0.1-53.7c0.3-3.4,2.1-5.1,5.5-5.5c5.7-0.7,26.9-0.8,32.3,0c5.4,0.9,2.8,6.9,1.2,6.9H104.9z"/>
<path class="st1" d="M541.4,357.8v52.3c0,0.3-1.6,2.4-2,2.6c-2,1.2-6.1,0.1-6.1-2.1v-52.8h-18.2c-1.5,0-4-6.1,1.2-6.9
	c13.1,0.9,28.1-1.3,41-0.1c6.1,0.6,3.8,7,2.3,7L541.4,357.8L541.4,357.8z"/>
<path class="st1" d="M578.5,351.6c1.4-1.5,4.9-1.7,6.2,0.1l0.6,58.4c-0.6,4.5-7.6,4.1-7.5-0.6c1.2-17.8-1.5-37.4,0-54.9
	C577.8,353.7,577.8,352.3,578.5,351.6L578.5,351.6z"/>
</svg>
